<svg width="20" height="20" viewBox="0 0 20 20" fill="#262626" xmlns="http://www.w3.org/2000/svg">
<path d="M1.93707 9.81719C1.96051 8.79297 2.17145 7.79922 2.56754 6.86406C2.97301 5.90313 3.55426 5.04297 4.29488 4.3C5.03551 3.55703 5.89801 2.97578 6.85895 2.57031C7.8527 2.15078 8.90738 1.9375 9.99723 1.9375C11.0871 1.9375 12.1418 2.15078 13.1332 2.57031C14.0913 2.97495 14.9615 3.56246 15.6949 4.3C15.9269 4.53203 16.1449 4.77813 16.3464 5.03594L14.9355 6.1375C14.9076 6.1591 14.8863 6.18813 14.8742 6.22127C14.862 6.25441 14.8595 6.2903 14.8668 6.32483C14.8742 6.35935 14.8911 6.39109 14.9157 6.41642C14.9403 6.44174 14.9715 6.45961 15.0058 6.46797L19.1238 7.47578C19.241 7.50391 19.3558 7.41484 19.3558 7.29531L19.3746 3.05547C19.3746 2.89844 19.1941 2.80937 19.0722 2.90781L17.7504 3.94141C15.948 1.63516 13.1449 0.15625 9.99488 0.15625C4.62535 0.15625 0.256602 4.45937 0.15582 9.80781C0.155195 9.83283 0.159582 9.85771 0.168725 9.88101C0.177867 9.9043 0.191579 9.92552 0.209053 9.94344C0.226526 9.96135 0.247408 9.97558 0.270468 9.98529C0.293527 9.99501 0.318298 10 0.34332 10H1.74957C1.8527 10 1.93473 9.91797 1.93707 9.81719ZM19.6558 10H18.2496C18.1464 10 18.0644 10.082 18.0621 10.1828C18.0386 11.207 17.8277 12.2008 17.4316 13.1359C17.0261 14.0969 16.4449 14.9594 15.7043 15.7C14.9567 16.4506 14.068 17.0458 13.0893 17.4513C12.1106 17.8568 11.0613 18.0645 10.0019 18.0625C8.9429 18.0645 7.89398 17.8567 6.91566 17.4513C5.93735 17.0458 5.04902 16.4506 4.30191 15.7C4.06988 15.468 3.85191 15.2219 3.65035 14.9641L5.06129 13.8625C5.08921 13.8409 5.11046 13.8119 5.12261 13.7787C5.13476 13.7456 5.1373 13.7097 5.12996 13.6752C5.12261 13.6407 5.10567 13.6089 5.08109 13.5836C5.0565 13.5583 5.02527 13.5404 4.99098 13.532L0.873008 12.5242C0.75582 12.4961 0.640977 12.5852 0.640977 12.7047L0.62457 16.9469C0.62457 17.1039 0.805039 17.193 0.926914 17.0945L2.24879 16.0609C4.05113 18.3648 6.85426 19.8438 10.0043 19.8438C15.3761 19.8438 19.7425 15.5383 19.8433 10.1922C19.8439 10.1672 19.8396 10.1423 19.8304 10.119C19.8213 10.0957 19.8076 10.0745 19.7901 10.0566C19.7726 10.0387 19.7517 10.0244 19.7287 10.0147C19.7056 10.005 19.6808 9.99999 19.6558 10Z"/>
</svg>
